HIERARCHY
ROOT Hips
{
	OFFSET -0.001795 -0.223333 0.028219
	CHANNELS 6 Xposition Yposition Zposition Zrotation Yrotation Xrotation 
	JOINT LeftUpLeg
	{
		OFFSET 0.069520 -0.091406 -0.006815
		CHANNELS 3 Zrotation Yrotation Xrotation
		JOINT LeftLeg
		{
			OFFSET 0.034277 -0.375199 -0.004496
			CHANNELS 3 Zrotation Yrotation Xrotation
			JOINT LeftFoot
			{
				OFFSET -0.013596 -0.397961 -0.043693
				CHANNELS 3 Zrotation Yrotation Xrotation
				JOINT LeftToe
				{
					OFFSET 0.026358 -0.055791 0.119288
					CHANNELS 3 Zrotation Yrotation Xrotation
					End Site
					{
						OFFSET 0.000000 0.000000 0.000000
					}
				}
			}
		}
	}
	JOINT RightUpLeg
	{
		OFFSET -0.067670 -0.090522 -0.004320
		CHANNELS 3 Zrotation Yrotation Xrotation
		JOINT RightLeg
		{
			OFFSET -0.038290 -0.382569 -0.008850
			CHANNELS 3 Zrotation Yrotation Xrotation
			JOINT RightFoot
			{
				OFFSET 0.015774 -0.398415 -0.042312
				CHANNELS 3 Zrotation Yrotation Xrotation
				JOINT RightToe
				{
					OFFSET -0.025372 -0.048144 0.123348
					CHANNELS 3 Zrotation Yrotation Xrotation
					End Site
					{
						OFFSET 0.000000 0.000000 0.000000
					}
				}
			}
		}
	}
	JOINT Spine
	{
		OFFSET -0.002533 0.108963 -0.026696
		CHANNELS 3 Zrotation Yrotation Xrotation
		JOINT Spine1
		{
			OFFSET 0.005487 0.135180 0.001092
			CHANNELS 3 Zrotation Yrotation Xrotation
			JOINT Spine2
			{
				OFFSET 0.001457 0.052922 0.025425
				CHANNELS 3 Zrotation Yrotation Xrotation
				JOINT Neck
				{
					OFFSET -0.002778 0.213870 -0.042857
					CHANNELS 3 Zrotation Yrotation Xrotation
					JOINT Head
					{
						OFFSET 0.005152 0.064970 0.051349
						CHANNELS 3 Zrotation Yrotation Xrotation
						End Site
						{
							OFFSET 0.000000 0.000000 0.000000
						}
					}
				}
				JOINT LeftShoulder
				{
					OFFSET 0.078845 0.121749 -0.034090
					CHANNELS 3 Zrotation Yrotation Xrotation
					JOINT LeftArm
					{
						OFFSET 0.090977 0.030469 -0.008868
						CHANNELS 3 Zrotation Yrotation Xrotation
						JOINT LeftForeArm
						{
							OFFSET 0.259612 -0.012772 -0.027456
							CHANNELS 3 Zrotation Yrotation Xrotation
							JOINT LeftHand
							{
								OFFSET 0.249234 0.008986 -0.001171
								CHANNELS 3 Zrotation Yrotation Xrotation
								End Site
								{
									OFFSET 0.000000 0.000000 0.000000
								}
							}
						}
					}
				}
				JOINT RightShoulder
				{
					OFFSET -0.081759 0.118833 -0.038615
					CHANNELS 3 Zrotation Yrotation Xrotation
					JOINT RightArm
					{
						OFFSET -0.096012 0.032551 -0.009143
						CHANNELS 3 Zrotation Yrotation Xrotation
						JOINT RightForeArm
						{
							OFFSET -0.253742 -0.013329 -0.021401
							CHANNELS 3 Zrotation Yrotation Xrotation
							JOINT RightHand
							{
								OFFSET -0.255298 0.007772 -0.005559
								CHANNELS 3 Zrotation Yrotation Xrotation
								End Site
								{
									OFFSET 0.000000 0.000000 0.000000
								}
							}
						}
					}
				}
			}
		}
	}
}
MOTION
Frames: 18
Frame Time: 0.050000
0.000000 0.940977 0.000000 -2.837336 -15.278147 -0.906013 2.098078 -0.102579 -2.000269 -0.614697 0.051468 2.350063 4.618929 10.244410 4.456579 0.000000 0.000000 0.000000 -4.517135 0.604574 -6.287664 -1.205001 1.896946 20.682017 2.034694 6.512416 -1.407455 0.000000 0.000000 0.000000 3.494341 -0.443540 6.830370 -3.617738 1.689821 -1.027110 -1.581467 -1.435961 9.054980 6.219642 -3.725975 -15.861878 0.000000 0.000000 0.000000 -21.351894 -7.014857 4.769692 -43.024156 -10.992524 -2.506440 5.725303 -28.343145 0.224361 0.000000 0.000000 0.000000 22.217903 -1.569776 -5.659370 55.853586 -10.172240 -10.077595 3.240536 32.532058 1.240467 0.000000 0.000000 0.000000 
-0.016978 0.941476 -0.009620 -1.964725 -13.646662 -0.385396 3.710329 -0.144998 -3.584693 -2.352465 0.324287 2.367394 4.279478 9.708719 5.855988 0.000000 0.000000 0.000000 -4.118034 0.583168 -6.100414 -4.526330 2.350940 17.842604 3.829042 9.886454 0.043958 0.000000 0.000000 0.000000 2.302672 -0.409014 7.407833 -2.112140 0.960663 -1.421819 -2.837407 0.331966 8.511954 7.554681 -3.927086 -18.172747 0.000000 0.000000 0.000000 -21.275608 -6.794775 3.793485 -43.465764 -10.495364 -2.427996 7.369548 -28.196087 -0.291153 0.000000 0.000000 0.000000 22.112386 -3.398564 -5.782284 56.496861 -8.918689 -9.775783 2.628192 32.332536 1.335535 0.000000 0.000000 0.000000 
-0.035766 0.939892 -0.021397 -0.755462 -9.153935 -0.803236 3.798661 -0.286003 -5.587314 -2.105360 0.243693 4.471202 3.018473 7.594152 6.081097 0.000000 0.000000 0.000000 -3.666263 0.294682 -2.314520 -4.043216 1.395428 11.421783 3.315347 9.123739 -0.639315 0.000000 0.000000 0.000000 2.988820 -0.513939 8.235560 -2.652677 1.253503 -0.826536 -3.450004 0.043304 7.461737 7.178066 -3.458643 -17.981144 0.000000 0.000000 0.000000 -21.965810 -7.686933 3.622846 -43.742552 -10.549128 -2.161175 7.943043 -27.864746 -0.564445 0.000000 0.000000 0.000000 21.890510 -4.047530 -5.465347 57.862571 -7.909514 -9.591661 2.128727 32.563649 1.403821 0.000000 0.000000 0.000000 
-0.055286 0.938863 -0.035090 -0.414213 -6.799030 -1.153798 4.965293 -0.246138 -5.804642 -2.650511 0.314357 3.178388 2.489951 7.084498 7.634390 0.000000 0.000000 0.000000 -2.790424 0.218012 -1.715071 -3.919021 1.247323 10.317889 3.090614 8.856018 -1.023571 0.000000 0.000000 0.000000 3.834442 -0.642286 9.159659 -2.452212 1.193959 0.476609 -4.925426 1.959418 6.764782 7.845138 -3.511363 -17.606274 0.000000 0.000000 0.000000 -21.471247 -8.397436 2.894832 -44.209857 -8.900182 -2.365314 7.842936 -29.740313 -0.817482 0.000000 0.000000 0.000000 22.971549 -3.617038 -4.409252 57.271515 -5.488979 -8.379391 -0.427422 34.048776 1.081327 0.000000 0.000000 0.000000 
-0.073794 0.940158 -0.048877 -0.273130 -3.903691 -1.075594 5.519850 -0.305600 -7.143893 -2.454311 0.255719 3.781296 2.879307 7.784531 6.688589 0.000000 0.000000 0.000000 -1.492458 0.218383 -2.084235 -2.572613 0.954317 10.181231 1.268146 4.372621 -1.604093 0.000000 0.000000 0.000000 5.117410 -0.869443 10.402571 -3.333112 1.626337 0.729442 -4.734443 2.438251 6.286829 7.178956 -3.010459 -16.811547 0.000000 0.000000 0.000000 -24.256850 -7.975156 1.922884 -42.803272 -6.986288 -2.710973 8.489145 -31.629160 -1.214538 0.000000 0.000000 0.000000 22.133108 -2.203569 -2.909529 57.179222 -3.601657 -7.522772 0.484177 31.988093 1.414680 0.000000 0.000000 0.000000 
-0.089378 0.942575 -0.059898 -0.124307 0.716266 -0.674990 5.996840 -0.387811 -8.128378 -3.623885 0.384811 2.833361 4.869542 11.636129 6.836262 0.000000 0.000000 0.000000 -0.649827 0.207318 -2.052784 -1.104714 0.596499 9.743730 0.139685 0.991541 -1.173131 0.000000 0.000000 0.000000 5.568253 -0.897037 9.578986 -2.586994 1.238797 2.499291 -5.170744 4.273378 6.025174 7.911652 -2.909430 -17.357455 0.000000 0.000000 0.000000 -24.695453 -10.022771 1.609541 -43.761680 -5.663387 -2.726491 7.542097 -31.303181 -1.265379 0.000000 0.000000 0.000000 23.089468 -2.930395 -2.179711 55.520777 -1.684229 -6.622769 0.072989 30.979959 1.585122 0.000000 0.000000 0.000000 
-0.101849 0.944043 -0.067693 0.342120 5.493472 -1.674347 5.888268 -0.406382 -7.214986 -5.406503 0.563646 4.537344 8.400691 17.489599 4.364658 0.000000 0.000000 0.000000 0.394323 0.021459 -0.248048 -0.538644 0.407375 9.176641 -0.912473 -1.950167 -1.049116 0.000000 0.000000 0.000000 5.658426 -1.010791 10.381114 -1.981681 0.913181 1.686355 -5.391975 4.261905 6.876641 8.604951 -3.002152 -17.930763 0.000000 0.000000 0.000000 -25.481449 -9.399637 0.316128 -44.495756 -3.277603 -3.403279 5.354198 -31.927524 -0.854704 0.000000 0.000000 0.000000 23.545313 -1.999934 -0.862788 54.553872 0.448513 -5.876051 -2.109384 29.498407 1.135977 0.000000 0.000000 0.000000 
-0.111511 0.945300 -0.072953 0.436723 10.400026 -1.778369 5.439350 -0.462899 -6.935082 -5.866508 0.540957 6.895909 9.711990 19.578815 4.257761 0.000000 0.000000 0.000000 1.388667 -0.055535 0.425115 0.464512 0.122314 8.281808 -2.395943 -6.248555 -0.003882 0.000000 0.000000 0.000000 5.772077 -0.976434 9.487151 -1.116804 0.427869 2.102585 -5.203824 4.644710 7.716527 7.922623 -2.191360 -18.422725 0.000000 0.000000 0.000000 -24.621747 -8.799346 -0.917725 -46.019878 -1.767702 -3.907089 2.889079 -30.676637 -0.351058 0.000000 0.000000 0.000000 22.091630 -2.562642 -0.362306 55.302576 1.336794 -5.646716 -2.022775 29.876325 1.389951 0.000000 0.000000 0.000000 
-0.118465 0.945295 -0.076527 0.305098 13.348981 -1.512824 4.916854 -0.489713 -6.659420 -6.365455 0.535254 8.886376 11.966207 23.128239 5.249879 0.000000 0.000000 0.000000 2.351216 -0.024139 0.198477 0.644247 0.042804 8.402628 -2.870069 -7.528390 -0.102389 0.000000 0.000000 0.000000 6.103168 -0.900180 8.243147 -0.743875 0.250045 1.592958 -4.890122 5.461591 8.515969 7.694675 -1.851204 -18.075928 0.000000 0.000000 0.000000 -23.657518 -6.978358 -2.559274 -46.958748 0.259887 -4.710470 -0.033294 -28.987195 0.275674 0.000000 0.000000 0.000000 21.072756 -2.698352 0.181816 55.136746 2.611662 -5.128179 -3.171115 29.820229 1.271096 0.000000 0.000000 0.000000 
-0.122804 0.943767 -0.079117 0.398949 16.401206 -1.932061 3.698776 -0.410412 -4.910567 -7.615374 0.606231 11.980386 13.636807 25.264099 3.108235 0.000000 0.000000 0.000000 2.582627 -0.181808 1.443903 0.932990 -0.062028 6.842931 -3.091987 -8.249582 0.544785 0.000000 0.000000 0.000000 6.209320 -0.905737 8.086508 -0.900645 0.386664 0.581027 -3.992556 6.570374 9.664333 7.786426 -1.606249 -18.087788 0.000000 0.000000 0.000000 -23.064752 -7.941091 -2.774936 -47.058377 2.361367 -5.389687 -0.765994 -27.667814 0.302245 0.000000 0.000000 0.000000 21.694172 -4.046781 0.151193 53.814837 3.071325 -5.143070 -3.567945 31.561839 1.518764 0.000000 0.000000 0.000000 
-0.125046 0.941350 -0.081596 0.205033 19.877924 -2.326563 3.246100 -0.315348 -3.205175 -8.288843 0.548476 13.737548 13.544059 24.659460 3.004835 0.000000 0.000000 0.000000 2.966871 -0.243012 1.934603 1.650057 -0.253889 6.055199 -4.547327 -12.083303 1.455026 0.000000 0.000000 0.000000 6.500038 -0.891633 7.623954 -0.337133 0.096809 0.646200 -4.750977 5.744935 9.775962 8.499719 -1.971739 -17.829012 0.000000 0.000000 0.000000 -22.163034 -6.193636 -3.864622 -47.027488 3.871141 -5.984015 -1.605115 -26.162250 0.413709 0.000000 0.000000 0.000000 21.127176 -2.973569 1.072154 53.961941 4.499641 -4.534529 -4.032468 31.106002 1.408092 0.000000 0.000000 0.000000 
-0.125864 0.939575 -0.084222 0.224359 22.778927 -1.891008 2.447692 -0.193648 -1.257332 -7.351919 0.354788 11.399113 12.345988 22.314874 2.419374 0.000000 0.000000 0.000000 2.789317 -0.177358 1.526059 2.364761 -0.442286 5.662537 -5.477666 -14.429660 1.996778 0.000000 0.000000 0.000000 6.958010 -0.844833 6.697379 -0.935143 0.309601 1.189266 -4.326334 6.209100 9.426835 7.896447 -1.496538 -17.289083 0.000000 0.000000 0.000000 -22.410140 -7.907127 -3.641907 -46.349351 5.981182 -6.410494 -0.601383 -24.512894 0.114518 0.000000 0.000000 0.000000 22.067928 -3.785028 1.165822 52.825265 4.834027 -4.539662 -4.939977 32.115270 1.390063 0.000000 0.000000 0.000000 
-0.125941 0.939128 -0.087001 0.203913 25.460606 -1.450822 2.327135 -0.112011 0.644092 -6.996420 0.321506 7.178442 11.134794 20.299253 3.463308 0.000000 0.000000 0.000000 2.878008 -0.044215 0.641281 2.425084 -0.506488 5.851064 -6.302107 -16.436820 2.433765 0.000000 0.000000 0.000000 6.841910 -0.753809 5.844660 -0.081599 -0.136547 1.255001 -4.744443 5.592026 9.233071 7.422608 -1.160443 -16.967493 0.000000 0.000000 0.000000 -22.380708 -7.203832 -4.332012 -45.586419 7.390868 -6.673703 -1.198128 -23.317270 0.200147 0.000000 0.000000 0.000000 21.980405 -4.326917 1.052333 52.580429 5.443582 -4.275593 -5.188466 33.461481 1.528211 0.000000 0.000000 0.000000 
-0.125865 0.938592 -0.089368 0.357028 27.762569 -1.106427 1.855353 -0.044460 1.952216 -5.986918 0.232349 3.684594 9.899884 18.238680 3.605269 0.000000 0.000000 0.000000 2.933248 0.024045 0.207454 2.007910 -0.457306 5.995242 -6.796650 -17.780777 2.288410 0.000000 0.000000 0.000000 6.761358 -0.692730 5.263973 0.114746 -0.268501 1.353183 -5.317494 5.887411 8.956155 7.115593 -0.805592 -16.874672 0.000000 0.000000 0.000000 -21.816618 -7.640248 -4.483755 -45.415876 8.431980 -6.898913 -1.593952 -23.112319 0.193864 0.000000 0.000000 0.000000 22.438383 -4.945165 1.126339 52.826177 5.711140 -4.193420 -5.818945 34.534019 1.573652 0.000000 0.000000 0.000000 
-0.125768 0.938559 -0.091285 0.326825 29.430175 -1.220376 1.366434 -0.009307 2.207269 -4.970676 0.162019 2.435012 8.895341 16.692802 3.822201 0.000000 0.000000 0.000000 3.034303 0.040245 0.140757 1.802120 -0.451913 6.322350 -7.216508 -18.840293 2.471216 0.000000 0.000000 0.000000 6.677396 -0.687293 5.228679 0.209726 -0.273094 0.946156 -5.546000 5.859186 9.398892 6.820143 -0.517551 -16.829150 0.000000 0.000000 0.000000 -21.664151 -7.486521 -4.830518 -45.246077 8.436971 -6.830957 -2.184529 -22.676294 0.268259 0.000000 0.000000 0.000000 22.209649 -5.317682 1.122320 53.600165 6.193987 -3.976826 -6.247823 34.770283 1.582428 0.000000 0.000000 0.000000 
-0.125967 0.938417 -0.092893 0.598511 30.853680 -1.314306 0.992555 0.032434 2.861771 -4.274846 0.125279 1.023246 7.704395 14.864403 3.870672 0.000000 0.000000 0.000000 2.961262 -0.008579 0.503758 1.430915 -0.379493 6.041961 -7.371459 -19.539809 1.962327 0.000000 0.000000 0.000000 6.449538 -0.709811 5.550165 0.071949 -0.162681 0.555120 -5.952563 5.979360 9.530776 6.641736 -0.202848 -17.262040 0.000000 0.000000 0.000000 -21.286147 -7.582956 -4.976471 -44.982881 8.357570 -6.707936 -3.174941 -22.933007 0.411495 0.000000 0.000000 0.000000 21.843337 -5.280934 1.342666 54.233464 6.126720 -3.941090 -6.071788 34.983864 1.709373 0.000000 0.000000 0.000000 
-0.126324 0.938674 -0.094352 0.810108 32.376833 -1.275358 0.862303 0.040035 3.172215 -4.042728 0.102559 0.180054 6.657703 13.215395 3.808666 0.000000 0.000000 0.000000 2.719002 -0.001647 0.438623 1.257935 -0.392384 6.706400 -7.394940 -19.659963 1.931502 0.000000 0.000000 0.000000 6.028617 -0.703398 5.754869 0.108779 -0.145228 0.233294 -6.047773 5.823517 9.423636 6.305726 0.059620 -17.176274 0.000000 0.000000 0.000000 -21.231894 -7.194605 -5.371726 -44.816497 8.525401 -6.698848 -3.547943 -23.751566 0.441781 0.000000 0.000000 0.000000 21.658140 -5.110638 1.594791 54.505568 6.041573 -3.935864 -5.826609 34.597900 1.754758 0.000000 0.000000 0.000000 
-0.126845 0.938964 -0.095504 1.129525 33.430777 -1.255551 0.576881 0.066630 3.543072 -3.829603 0.086429 -0.404715 5.839596 12.113872 4.147549 0.000000 0.000000 0.000000 2.710373 -0.040034 0.719660 0.687696 -0.263132 6.441572 -7.346061 -19.676624 1.785895 0.000000 0.000000 0.000000 5.674824 -0.700532 5.966947 -0.139355 -0.005375 0.017600 -6.232651 5.885667 9.244542 6.128083 0.197083 -16.992032 0.000000 0.000000 0.000000 -20.756627 -7.134079 -5.420871 -44.520519 8.601799 -6.684020 -4.315476 -24.924108 0.562537 0.000000 0.000000 0.000000 21.657358 -5.132118 1.733560 54.688269 5.699259 -4.048961 -6.069072 34.884600 1.738550 0.000000 0.000000 0.000000 
